<?xml version="1.0" standalone="no"?>
<!DOCTYPE svg PUBLIC "-//W3C//DTD SVG 20010904//EN"
 "http://www.w3.org/TR/2001/REC-SVG-20010904/DTD/svg10.dtd">
<svg version="1.0" xmlns="http://www.w3.org/2000/svg"
 width="137.000000pt" height="137.000000pt" viewBox="0 0 137.000000 137.000000"
 preserveAspectRatio="xMidYMid meet">

<g transform="translate(0.000000,137.000000) scale(0.100000,-0.100000)"
fill="#000000" stroke="none">
<path d="M552 978 l-149 -293 98 -3 c55 -1 99 -5 99 -8 0 -3 -53 -107 -119
-232 -65 -125 -128 -247 -141 -272 l-22 -45 30 30 c17 17 166 181 332 365
l301 335 -112 3 c-99 2 -111 4 -107 20 3 9 57 99 122 200 64 101 116 186 116
188 0 2 -67 4 -149 4 l-149 0 -150 -292z"/>
<path d="M517 1196 c-182 -75 -313 -203 -359 -348 -21 -68 -24 -197 -7 -280
17 -85 81 -207 137 -261 l48 -48 18 34 18 33 -50 74 c-80 118 -96 166 -96 290
-1 94 2 111 26 163 60 128 147 211 270 257 59 22 69 30 87 67 l21 43 -28 0
c-15 0 -53 -11 -85 -24z"/>
<path d="M948 1114 c-10 -12 -18 -27 -18 -31 0 -5 21 -29 46 -53 109 -107 164
-232 164 -371 0 -181 -91 -323 -259 -402 -53 -25 -79 -31 -160 -35 -66 -3
-116 1 -161 11 l-65 16 -28 -28 -29 -28 52 -22 c28 -12 87 -27 130 -33 205
-30 387 61 520 259 66 98 90 179 90 299 0 173 -67 303 -207 401 l-58 41 -17
-24z"/>
</g>
</svg>
